<svg width="375" height="244" viewBox="0 0 375 244" fill="none" xmlns="http://www.w3.org/2000/svg">
<g filter="url(#filter0_d_1_52)">
<rect x="30" y="26" width="315" height="184" rx="12" fill="url(#paint0_linear_1_52)"/>
</g>
<mask id="mask0_1_52" style="mask-type:alpha" maskUnits="userSpaceOnUse" x="30" y="26" width="315" height="184">
<rect x="30" y="26" width="315" height="184" rx="12" fill="white"/>
</mask>
<g mask="url(#mask0_1_52)">
<ellipse opacity="0.1" cx="61.5" cy="258" rx="160.5" ry="113" fill="black"/>
<ellipse opacity="0.08" cx="320.5" cy="-3" rx="160.5" ry="113" fill="black"/>
</g>
<g clip-path="url(#clip0_1_52)">
<path d="M292.5 67.798H288.855L291.135 54.2457H294.78L292.5 67.798Z" fill="white"/>
<path d="M305.715 54.577C304.996 54.3028 303.855 54 302.445 54C298.845 54 296.31 55.8453 296.295 58.4836C296.265 60.4301 298.11 61.5113 299.489 62.1603C300.9 62.8235 301.379 63.2564 301.379 63.8475C301.365 64.7554 300.24 65.1739 299.19 65.1739C297.735 65.1739 296.955 64.9582 295.77 64.4531L295.29 64.2365L294.78 67.2787C295.635 67.6532 297.21 67.9854 298.845 68C302.67 68 305.16 66.1832 305.19 63.3717C305.204 61.829 304.23 60.6468 302.13 59.6809C300.855 59.0608 300.074 58.6427 300.074 58.0082C300.089 57.4314 300.734 56.8406 302.174 56.8406C303.359 56.8117 304.229 57.0855 304.889 57.3595L305.219 57.5035L305.715 54.577Z" fill="white"/>
<path d="M310.559 62.9969C310.86 62.2183 312.015 59.2051 312.015 59.2051C312 59.234 312.314 58.4121 312.494 57.9076L312.749 59.0753C312.749 59.0753 313.44 62.3193 313.589 62.9969C313.02 62.9969 311.279 62.9969 310.559 62.9969ZM315.059 54.2457H312.24C311.37 54.2457 310.709 54.4906 310.334 55.3701L304.92 67.7978H308.744C308.744 67.7978 309.374 66.1252 309.51 65.7649C309.929 65.7649 313.65 65.7649 314.19 65.7649C314.294 66.2407 314.625 67.7978 314.625 67.7978H318L315.059 54.2457Z" fill="white"/>
<path d="M285.81 54.2457L282.24 63.4871L281.85 61.6128C281.19 59.4502 279.12 57.1005 276.81 55.9321L280.08 67.7837H283.935L289.665 54.2457H285.81Z" fill="white"/>
<path d="M278.925 54.2457H273.06L273 54.5195C277.575 55.6441 280.605 58.355 281.85 61.6134L280.575 55.3849C280.365 54.5193 279.72 54.2742 278.925 54.2457Z" fill="white"/>
</g>
<path d="M199.971 178.818V189H198.43V180.359H198.37L195.934 181.95V180.479L198.475 178.818H199.971ZM203.225 189V187.886L206.671 184.317C207.039 183.929 207.342 183.589 207.581 183.298C207.823 183.003 208.003 182.723 208.123 182.457C208.242 182.192 208.301 181.911 208.301 181.612C208.301 181.274 208.222 180.982 208.063 180.737C207.904 180.489 207.687 180.298 207.412 180.165C207.136 180.03 206.827 179.962 206.482 179.962C206.117 179.962 205.799 180.036 205.527 180.185C205.256 180.335 205.047 180.545 204.901 180.817C204.755 181.089 204.682 181.407 204.682 181.771H203.216C203.216 181.152 203.358 180.61 203.643 180.146C203.928 179.682 204.319 179.322 204.816 179.067C205.314 178.808 205.879 178.679 206.512 178.679C207.151 178.679 207.715 178.807 208.202 179.062C208.693 179.314 209.075 179.658 209.35 180.096C209.626 180.53 209.763 181.021 209.763 181.567C209.763 181.945 209.692 182.315 209.549 182.676C209.41 183.037 209.167 183.44 208.819 183.884C208.471 184.325 207.987 184.86 207.367 185.49L205.343 187.608V187.683H209.927V189H203.225ZM216.209 178.341L212.928 190.531H211.6L214.882 178.341H216.209ZM217.952 189V187.886L221.397 184.317C221.765 183.929 222.069 183.589 222.307 183.298C222.549 183.003 222.73 182.723 222.849 182.457C222.968 182.192 223.028 181.911 223.028 181.612C223.028 181.274 222.949 180.982 222.789 180.737C222.63 180.489 222.413 180.298 222.138 180.165C221.863 180.03 221.553 179.962 221.208 179.962C220.844 179.962 220.526 180.036 220.254 180.185C219.982 180.335 219.773 180.545 219.627 180.817C219.482 181.089 219.409 181.407 219.409 181.771H217.942C217.942 181.152 218.085 180.61 218.37 180.146C218.655 179.682 219.046 179.322 219.543 179.067C220.04 178.808 220.605 178.679 221.238 178.679C221.878 178.679 222.441 178.807 222.929 179.062C223.419 179.314 223.802 179.658 224.077 180.096C224.352 180.53 224.49 181.021 224.49 181.567C224.49 181.945 224.418 182.315 224.276 182.676C224.137 183.037 223.893 183.44 223.545 183.884C223.197 184.325 222.713 184.86 222.093 185.49L220.07 187.608V187.683H224.654V189H217.952ZM226.605 187.011V185.768L231.005 178.818H231.985V180.648H231.363L228.216 185.629V185.709H234.247V187.011H226.605ZM231.433 189V186.634L231.443 186.067V178.818H232.9V189H231.433Z" fill="white"/>
<path d="M293.524 187.139C292.841 187.139 292.232 187.022 291.695 186.786C291.161 186.551 290.738 186.224 290.427 185.807C290.119 185.386 289.953 184.899 289.93 184.345H291.491C291.511 184.647 291.612 184.909 291.794 185.131C291.98 185.349 292.222 185.518 292.52 185.638C292.818 185.757 293.15 185.817 293.514 185.817C293.915 185.817 294.27 185.747 294.578 185.608C294.89 185.469 295.133 185.275 295.309 185.026C295.485 184.774 295.572 184.484 295.572 184.156C295.572 183.815 295.485 183.515 295.309 183.256C295.137 182.995 294.883 182.789 294.548 182.64C294.217 182.491 293.816 182.416 293.345 182.416H292.485V181.163H293.345C293.723 181.163 294.054 181.095 294.339 180.96C294.628 180.824 294.853 180.635 295.016 180.393C295.178 180.147 295.259 179.861 295.259 179.533C295.259 179.218 295.188 178.944 295.045 178.712C294.906 178.477 294.707 178.293 294.449 178.161C294.194 178.028 293.892 177.962 293.544 177.962C293.213 177.962 292.903 178.023 292.614 178.146C292.329 178.265 292.097 178.437 291.918 178.663C291.739 178.885 291.643 179.152 291.63 179.463H290.143C290.16 178.913 290.322 178.429 290.631 178.011C290.942 177.594 291.353 177.267 291.864 177.032C292.374 176.797 292.941 176.679 293.564 176.679C294.217 176.679 294.78 176.807 295.254 177.062C295.732 177.314 296.099 177.65 296.358 178.071C296.62 178.492 296.749 178.953 296.746 179.453C296.749 180.023 296.59 180.507 296.268 180.905C295.95 181.303 295.526 181.569 294.996 181.705V181.785C295.672 181.888 296.196 182.156 296.567 182.59C296.941 183.024 297.127 183.563 297.124 184.206C297.127 184.766 296.971 185.268 296.656 185.712C296.345 186.156 295.919 186.506 295.379 186.761C294.838 187.013 294.22 187.139 293.524 187.139ZM299.289 185.011V183.768L303.689 176.818H304.668V178.648H304.047L300.9 183.629V183.709H306.93V185.011H299.289ZM304.116 187V184.634L304.126 184.067V176.818H305.583V187H304.116ZM308.949 185.011V183.768L313.349 176.818H314.328V178.648H313.707L310.56 183.629V183.709H316.591V185.011H308.949ZM313.777 187V184.634L313.787 184.067V176.818H315.243V187H313.777Z" fill="white"/>
<path d="M66.2003 134.199C65.3101 134.199 64.5099 134.028 63.7997 133.688C63.0942 133.342 62.5308 132.868 62.1094 132.267C61.688 131.666 61.4631 130.979 61.4347 130.207H63.5653C63.6174 130.832 63.8944 131.346 64.3963 131.749C64.8982 132.151 65.4995 132.352 66.2003 132.352C66.759 132.352 67.2538 132.224 67.6847 131.969C68.1203 131.708 68.4612 131.351 68.7074 130.896C68.9583 130.442 69.0838 129.923 69.0838 129.341C69.0838 128.749 68.956 128.221 68.7003 127.757C68.4446 127.293 68.0919 126.929 67.642 126.663C67.197 126.398 66.6856 126.263 66.108 126.259C65.6676 126.259 65.2249 126.334 64.7798 126.486C64.3348 126.637 63.9749 126.836 63.7003 127.082L61.6903 126.784L62.5071 119.455H70.5043V121.337H64.3324L63.8707 125.406H63.956C64.2401 125.132 64.6165 124.902 65.0852 124.717C65.5587 124.533 66.0653 124.44 66.6051 124.44C67.4905 124.44 68.2789 124.651 68.9702 125.072C69.6662 125.494 70.2131 126.069 70.6108 126.798C71.0133 127.523 71.2121 128.356 71.2074 129.298C71.2121 130.241 70.9991 131.081 70.5682 131.82C70.142 132.558 69.5502 133.141 68.7926 133.567C68.0398 133.988 67.1757 134.199 66.2003 134.199ZM74.3015 134V132.409L79.2234 127.31C79.7489 126.756 80.1822 126.27 80.5231 125.854C80.8687 125.432 81.1268 125.032 81.2972 124.653C81.4677 124.275 81.5529 123.872 81.5529 123.446C81.5529 122.963 81.4393 122.546 81.212 122.196C80.9847 121.841 80.6746 121.569 80.2816 121.379C79.8886 121.185 79.4459 121.088 78.9535 121.088C78.4326 121.088 77.9781 121.195 77.5898 121.408C77.2016 121.621 76.9033 121.921 76.695 122.31C76.4866 122.698 76.3825 123.152 76.3825 123.673H74.2873C74.2873 122.788 74.4909 122.014 74.8981 121.351C75.3053 120.688 75.864 120.174 76.5742 119.81C77.2844 119.44 78.0917 119.256 78.9961 119.256C79.9099 119.256 80.7148 119.438 81.4109 119.803C82.1116 120.162 82.6585 120.655 83.0515 121.28C83.4445 121.9 83.641 122.601 83.641 123.382C83.641 123.922 83.5392 124.45 83.3356 124.966C83.1367 125.482 82.7887 126.057 82.2915 126.692C81.7944 127.321 81.1031 128.086 80.2177 128.986L77.3271 132.011V132.118H83.8754V134H74.3015ZM91.9038 119.256C92.5524 119.26 93.1916 119.379 93.8214 119.611C94.4511 119.843 95.0193 120.222 95.5259 120.747C96.0373 121.273 96.4445 121.983 96.7475 122.878C97.0553 123.768 97.2115 124.876 97.2163 126.202C97.2163 127.475 97.0884 128.609 96.8327 129.604C96.5771 130.593 96.2101 131.429 95.7319 132.111C95.2584 132.793 94.6831 133.311 94.006 133.666C93.329 134.021 92.5666 134.199 91.7191 134.199C90.8526 134.199 90.0832 134.028 89.4109 133.688C88.7385 133.347 88.1916 132.875 87.7702 132.274C87.3488 131.668 87.0861 130.972 86.9819 130.186H89.1481C89.2901 130.811 89.579 131.318 90.0146 131.706C90.4549 132.089 91.0231 132.281 91.7191 132.281C92.7844 132.281 93.6154 131.817 94.212 130.889C94.8086 129.956 95.1093 128.654 95.114 126.983H95.0004C94.7541 127.39 94.4464 127.741 94.0771 128.034C93.7125 128.328 93.3029 128.555 92.8484 128.716C92.3938 128.877 91.9085 128.957 91.3924 128.957C90.5543 128.957 89.792 128.751 89.1055 128.339C88.4189 127.928 87.872 127.362 87.4648 126.642C87.0576 125.922 86.854 125.101 86.854 124.178C86.854 123.259 87.0624 122.426 87.479 121.678C87.9004 120.929 88.4876 120.338 89.2404 119.902C89.998 119.462 90.8858 119.246 91.9038 119.256ZM91.9109 121.102C91.3569 121.102 90.8574 121.24 90.4123 121.514C89.9719 121.784 89.6239 122.151 89.3683 122.615C89.1126 123.074 88.9847 123.586 88.9847 124.149C88.9847 124.713 89.1078 125.224 89.354 125.683C89.605 126.138 89.9459 126.5 90.3768 126.77C90.8124 127.035 91.3095 127.168 91.8683 127.168C92.2849 127.168 92.6732 127.087 93.033 126.926C93.3929 126.765 93.7077 126.543 93.9776 126.259C94.2475 125.97 94.4582 125.643 94.6097 125.278C94.7612 124.914 94.837 124.53 94.837 124.128C94.837 123.593 94.7092 123.096 94.4535 122.636C94.2025 122.177 93.8569 121.808 93.4165 121.528C92.9762 121.244 92.4743 121.102 91.9109 121.102ZM99.9766 131.159V129.384L106.262 119.455H107.661V122.068H106.773L102.278 129.185V129.298H110.893V131.159H99.9766ZM106.873 134V130.619L106.887 129.81V119.455H108.968V134H106.873ZM119.661 134V132.409L124.583 127.31C125.108 126.756 125.542 126.27 125.882 125.854C126.228 125.432 126.486 125.032 126.657 124.653C126.827 124.275 126.912 123.872 126.912 123.446C126.912 122.963 126.799 122.546 126.571 122.196C126.344 121.841 126.034 121.569 125.641 121.379C125.248 121.185 124.805 121.088 124.313 121.088C123.792 121.088 123.337 121.195 122.949 121.408C122.561 121.621 122.263 121.921 122.054 122.31C121.846 122.698 121.742 123.152 121.742 123.673H119.647C119.647 122.788 119.85 122.014 120.257 121.351C120.665 120.688 121.223 120.174 121.934 119.81C122.644 119.44 123.451 119.256 124.355 119.256C125.269 119.256 126.074 119.438 126.77 119.803C127.471 120.162 128.018 120.655 128.411 121.28C128.804 121.9 129 122.601 129 123.382C129 123.922 128.899 124.45 128.695 124.966C128.496 125.482 128.148 126.057 127.651 126.692C127.154 127.321 126.462 128.086 125.577 128.986L122.686 132.011V132.118H129.235V134H119.661ZM131.809 131.159V129.384L138.094 119.455H139.493V122.068H138.605L134.11 129.185V129.298H142.725V131.159H131.809ZM138.705 134V130.619L138.719 129.81V119.455H140.8V134H138.705ZM150.764 134.199C149.788 134.199 148.917 134.031 148.15 133.695C147.388 133.358 146.784 132.892 146.339 132.295C145.899 131.694 145.662 130.998 145.629 130.207H147.859C147.887 130.638 148.032 131.012 148.292 131.33C148.557 131.642 148.903 131.884 149.329 132.054C149.755 132.224 150.229 132.31 150.75 132.31C151.323 132.31 151.829 132.21 152.27 132.011C152.715 131.812 153.063 131.536 153.314 131.18C153.565 130.821 153.69 130.406 153.69 129.938C153.69 129.45 153.565 129.021 153.314 128.652C153.067 128.278 152.705 127.984 152.227 127.771C151.753 127.558 151.181 127.452 150.508 127.452H149.279V125.662H150.508C151.048 125.662 151.521 125.565 151.929 125.371C152.341 125.177 152.663 124.907 152.895 124.561C153.127 124.211 153.243 123.801 153.243 123.332C153.243 122.883 153.141 122.492 152.937 122.161C152.738 121.824 152.454 121.562 152.085 121.372C151.72 121.183 151.289 121.088 150.792 121.088C150.319 121.088 149.876 121.176 149.464 121.351C149.057 121.521 148.725 121.768 148.47 122.089C148.214 122.407 148.077 122.788 148.058 123.233H145.934C145.958 122.447 146.19 121.756 146.63 121.159C147.075 120.562 147.663 120.096 148.392 119.76C149.121 119.424 149.931 119.256 150.821 119.256C151.753 119.256 152.558 119.438 153.235 119.803C153.917 120.162 154.443 120.643 154.812 121.244C155.186 121.846 155.371 122.504 155.366 123.219C155.371 124.033 155.144 124.724 154.684 125.293C154.23 125.861 153.624 126.242 152.866 126.436V126.55C153.832 126.696 154.58 127.08 155.11 127.7C155.645 128.321 155.911 129.09 155.906 130.009C155.911 130.809 155.688 131.526 155.238 132.161C154.793 132.795 154.185 133.295 153.413 133.659C152.641 134.019 151.758 134.199 150.764 134.199ZM164.169 134.199C163.52 134.189 162.881 134.071 162.251 133.844C161.626 133.616 161.058 133.238 160.547 132.707C160.035 132.177 159.626 131.464 159.318 130.57C159.015 129.675 158.863 128.557 158.863 127.217C158.863 125.948 158.989 124.821 159.24 123.837C159.495 122.852 159.862 122.021 160.341 121.344C160.819 120.662 161.396 120.143 162.074 119.788C162.751 119.433 163.511 119.256 164.353 119.256C165.22 119.256 165.989 119.426 166.662 119.767C167.334 120.108 167.878 120.579 168.295 121.18C168.717 121.782 168.984 122.466 169.098 123.233H166.931C166.785 122.627 166.493 122.132 166.058 121.749C165.622 121.365 165.054 121.173 164.353 121.173C163.288 121.173 162.457 121.637 161.86 122.565C161.269 123.493 160.97 124.784 160.966 126.436H161.072C161.323 126.024 161.631 125.674 161.995 125.385C162.365 125.091 162.777 124.866 163.231 124.71C163.69 124.549 164.173 124.469 164.68 124.469C165.523 124.469 166.285 124.675 166.967 125.087C167.654 125.494 168.2 126.057 168.608 126.777C169.015 127.497 169.218 128.321 169.218 129.249C169.218 130.177 169.008 131.017 168.586 131.77C168.17 132.523 167.583 133.119 166.825 133.56C166.067 133.995 165.182 134.208 164.169 134.199ZM164.162 132.352C164.72 132.352 165.22 132.215 165.66 131.94C166.1 131.666 166.449 131.296 166.704 130.832C166.96 130.368 167.088 129.85 167.088 129.277C167.088 128.718 166.962 128.209 166.711 127.75C166.465 127.291 166.124 126.926 165.689 126.656C165.258 126.386 164.765 126.251 164.211 126.251C163.79 126.251 163.399 126.332 163.039 126.493C162.684 126.654 162.372 126.876 162.102 127.161C161.832 127.445 161.619 127.771 161.463 128.141C161.311 128.505 161.235 128.891 161.235 129.298C161.235 129.843 161.361 130.347 161.612 130.811C161.868 131.275 162.216 131.649 162.656 131.933C163.101 132.213 163.603 132.352 164.162 132.352ZM177.793 131.159V129.384L184.078 119.455H185.478V122.068H184.59L180.094 129.185V129.298H188.709V131.159H177.793ZM184.689 134V130.619L184.703 129.81V119.455H186.784V134H184.689ZM192.174 134L198.524 121.443V121.337H191.18V119.455H200.797V121.401L194.468 134H192.174ZM208.388 134.199C207.37 134.199 206.471 134.024 205.689 133.673C204.913 133.323 204.304 132.84 203.864 132.224C203.424 131.609 203.206 130.908 203.211 130.122C203.206 129.507 203.331 128.941 203.587 128.425C203.847 127.904 204.2 127.471 204.645 127.125C205.09 126.775 205.587 126.552 206.137 126.457V126.372C205.412 126.197 204.832 125.809 204.397 125.207C203.961 124.606 203.746 123.915 203.75 123.134C203.746 122.39 203.942 121.727 204.34 121.145C204.742 120.558 205.294 120.096 205.995 119.76C206.695 119.424 207.493 119.256 208.388 119.256C209.274 119.256 210.064 119.426 210.76 119.767C211.461 120.103 212.013 120.565 212.415 121.152C212.818 121.734 213.021 122.395 213.026 123.134C213.021 123.915 212.799 124.606 212.358 125.207C211.918 125.809 211.345 126.197 210.64 126.372V126.457C211.184 126.552 211.674 126.775 212.11 127.125C212.55 127.471 212.9 127.904 213.161 128.425C213.426 128.941 213.561 129.507 213.566 130.122C213.561 130.908 213.338 131.609 212.898 132.224C212.458 132.84 211.847 133.323 211.066 133.673C210.289 134.024 209.397 134.199 208.388 134.199ZM208.388 132.402C208.989 132.402 209.51 132.303 209.951 132.104C210.391 131.9 210.732 131.618 210.973 131.259C211.215 130.894 211.338 130.468 211.343 129.98C211.338 129.473 211.205 129.026 210.945 128.638C210.689 128.25 210.341 127.944 209.901 127.722C209.461 127.499 208.956 127.388 208.388 127.388C207.815 127.388 207.306 127.499 206.861 127.722C206.416 127.944 206.066 128.25 205.81 128.638C205.554 129.026 205.429 129.473 205.434 129.98C205.429 130.468 205.545 130.894 205.782 131.259C206.023 131.618 206.366 131.9 206.811 132.104C207.257 132.303 207.782 132.402 208.388 132.402ZM208.388 125.634C208.871 125.634 209.3 125.536 209.674 125.342C210.048 125.148 210.341 124.878 210.554 124.533C210.772 124.187 210.883 123.782 210.888 123.318C210.883 122.864 210.775 122.466 210.561 122.125C210.353 121.784 210.062 121.521 209.688 121.337C209.314 121.147 208.881 121.053 208.388 121.053C207.886 121.053 207.446 121.147 207.067 121.337C206.693 121.521 206.402 121.784 206.194 122.125C205.985 122.466 205.883 122.864 205.888 123.318C205.883 123.782 205.988 124.187 206.201 124.533C206.414 124.878 206.707 125.148 207.081 125.342C207.46 125.536 207.896 125.634 208.388 125.634ZM221.674 134.241C220.552 134.237 219.593 133.941 218.798 133.354C218.002 132.767 217.394 131.912 216.972 130.79C216.551 129.668 216.34 128.316 216.34 126.734C216.34 125.158 216.551 123.811 216.972 122.693C217.398 121.576 218.009 120.723 218.805 120.136C219.605 119.549 220.561 119.256 221.674 119.256C222.787 119.256 223.741 119.552 224.536 120.143C225.332 120.731 225.94 121.583 226.362 122.7C226.788 123.813 227.001 125.158 227.001 126.734C227.001 128.321 226.79 129.675 226.369 130.797C225.947 131.914 225.339 132.769 224.543 133.361C223.748 133.948 222.791 134.241 221.674 134.241ZM221.674 132.345C222.659 132.345 223.428 131.865 223.982 130.903C224.541 129.942 224.82 128.553 224.82 126.734C224.82 125.527 224.692 124.507 224.437 123.673C224.186 122.835 223.824 122.201 223.35 121.77C222.881 121.334 222.323 121.116 221.674 121.116C220.694 121.116 219.924 121.599 219.366 122.565C218.807 123.531 218.525 124.921 218.521 126.734C218.521 127.946 218.646 128.972 218.897 129.81C219.153 130.643 219.515 131.275 219.984 131.706C220.452 132.132 221.016 132.345 221.674 132.345ZM235.813 134V132.409L240.735 127.31C241.261 126.756 241.694 126.27 242.035 125.854C242.38 125.432 242.638 125.032 242.809 124.653C242.979 124.275 243.065 123.872 243.065 123.446C243.065 122.963 242.951 122.546 242.724 122.196C242.496 121.841 242.186 121.569 241.793 121.379C241.4 121.185 240.958 121.088 240.465 121.088C239.944 121.088 239.49 121.195 239.102 121.408C238.713 121.621 238.415 121.921 238.207 122.31C237.998 122.698 237.894 123.152 237.894 123.673H235.799C235.799 122.788 236.003 122.014 236.41 121.351C236.817 120.688 237.376 120.174 238.086 119.81C238.796 119.44 239.603 119.256 240.508 119.256C241.422 119.256 242.227 119.438 242.923 119.803C243.623 120.162 244.17 120.655 244.563 121.28C244.956 121.9 245.153 122.601 245.153 123.382C245.153 123.922 245.051 124.45 244.847 124.966C244.648 125.482 244.3 126.057 243.803 126.692C243.306 127.321 242.615 128.086 241.729 128.986L238.839 132.011V132.118H245.387V134H235.813ZM247.961 131.159V129.384L254.246 119.455H255.646V122.068H254.758L250.262 129.185V129.298H258.877V131.159H247.961ZM254.857 134V130.619L254.871 129.81V119.455H256.952V134H254.857ZM266.93 134.199C266.282 134.189 265.643 134.071 265.013 133.844C264.388 133.616 263.82 133.238 263.308 132.707C262.797 132.177 262.387 131.464 262.08 130.57C261.777 129.675 261.625 128.557 261.625 127.217C261.625 125.948 261.75 124.821 262.001 123.837C262.257 122.852 262.624 122.021 263.102 121.344C263.58 120.662 264.158 120.143 264.835 119.788C265.512 119.433 266.272 119.256 267.115 119.256C267.982 119.256 268.751 119.426 269.423 119.767C270.096 120.108 270.64 120.579 271.057 121.18C271.478 121.782 271.746 122.466 271.859 123.233H269.693C269.546 122.627 269.255 122.132 268.82 121.749C268.384 121.365 267.816 121.173 267.115 121.173C266.05 121.173 265.219 121.637 264.622 122.565C264.03 123.493 263.732 124.784 263.727 126.436H263.834C264.085 126.024 264.393 125.674 264.757 125.385C265.126 125.091 265.538 124.866 265.993 124.71C266.452 124.549 266.935 124.469 267.442 124.469C268.285 124.469 269.047 124.675 269.729 125.087C270.415 125.494 270.962 126.057 271.369 126.777C271.777 127.497 271.98 128.321 271.98 129.249C271.98 130.177 271.769 131.017 271.348 131.77C270.931 132.523 270.344 133.119 269.587 133.56C268.829 133.995 267.944 134.208 266.93 134.199ZM266.923 132.352C267.482 132.352 267.982 132.215 268.422 131.94C268.862 131.666 269.21 131.296 269.466 130.832C269.722 130.368 269.849 129.85 269.849 129.277C269.849 128.718 269.724 128.209 269.473 127.75C269.227 127.291 268.886 126.926 268.45 126.656C268.019 126.386 267.527 126.251 266.973 126.251C266.552 126.251 266.161 126.332 265.801 126.493C265.446 126.654 265.134 126.876 264.864 127.161C264.594 127.445 264.381 127.771 264.224 128.141C264.073 128.505 263.997 128.891 263.997 129.298C263.997 129.843 264.123 130.347 264.374 130.811C264.629 131.275 264.977 131.649 265.418 131.933C265.863 132.213 266.365 132.352 266.923 132.352ZM279.982 134.199C278.964 134.199 278.064 134.024 277.283 133.673C276.507 133.323 275.898 132.84 275.458 132.224C275.017 131.609 274.8 130.908 274.804 130.122C274.8 129.507 274.925 128.941 275.181 128.425C275.441 127.904 275.794 127.471 276.239 127.125C276.684 126.775 277.181 126.552 277.73 126.457V126.372C277.006 126.197 276.426 125.809 275.99 125.207C275.555 124.606 275.339 123.915 275.344 123.134C275.339 122.39 275.536 121.727 275.934 121.145C276.336 120.558 276.888 120.096 277.588 119.76C278.289 119.424 279.087 119.256 279.982 119.256C280.867 119.256 281.658 119.426 282.354 119.767C283.055 120.103 283.606 120.565 284.009 121.152C284.411 121.734 284.615 122.395 284.62 123.134C284.615 123.915 284.392 124.606 283.952 125.207C283.512 125.809 282.939 126.197 282.233 126.372V126.457C282.778 126.552 283.268 126.775 283.703 127.125C284.144 127.471 284.494 127.904 284.755 128.425C285.02 128.941 285.155 129.507 285.159 130.122C285.155 130.908 284.932 131.609 284.492 132.224C284.051 132.84 283.441 133.323 282.659 133.673C281.883 134.024 280.99 134.199 279.982 134.199ZM279.982 132.402C280.583 132.402 281.104 132.303 281.544 132.104C281.985 131.9 282.326 131.618 282.567 131.259C282.809 130.894 282.932 130.468 282.936 129.98C282.932 129.473 282.799 129.026 282.539 128.638C282.283 128.25 281.935 127.944 281.495 127.722C281.054 127.499 280.55 127.388 279.982 127.388C279.409 127.388 278.9 127.499 278.455 127.722C278.01 127.944 277.659 128.25 277.404 128.638C277.148 129.026 277.023 129.473 277.027 129.98C277.023 130.468 277.139 130.894 277.375 131.259C277.617 131.618 277.96 131.9 278.405 132.104C278.85 132.303 279.376 132.402 279.982 132.402ZM279.982 125.634C280.465 125.634 280.893 125.536 281.267 125.342C281.641 125.148 281.935 124.878 282.148 124.533C282.366 124.187 282.477 123.782 282.482 123.318C282.477 122.864 282.368 122.466 282.155 122.125C281.947 121.784 281.656 121.521 281.282 121.337C280.908 121.147 280.474 121.053 279.982 121.053C279.48 121.053 279.04 121.147 278.661 121.337C278.287 121.521 277.996 121.784 277.787 122.125C277.579 122.466 277.477 122.864 277.482 123.318C277.477 123.782 277.581 124.187 277.794 124.533C278.007 124.878 278.301 125.148 278.675 125.342C279.054 125.536 279.489 125.634 279.982 125.634Z" fill="white"/>
<path d="M64.0341 175.364V187H62.2784V175.364H64.0341ZM71.0284 178.273V179.636H66.2614V178.273H71.0284ZM67.5398 176.182H69.2386V184.438C69.2386 184.767 69.2879 185.015 69.3864 185.182C69.4848 185.345 69.6117 185.456 69.767 185.517C69.9261 185.574 70.0985 185.602 70.2841 185.602C70.4205 185.602 70.5398 185.593 70.642 185.574C70.7443 185.555 70.8239 185.54 70.8807 185.528L71.1875 186.932C71.089 186.97 70.9489 187.008 70.767 187.045C70.5852 187.087 70.358 187.11 70.0852 187.114C69.6383 187.121 69.2216 187.042 68.8352 186.875C68.4489 186.708 68.1364 186.451 67.8977 186.102C67.6591 185.754 67.5398 185.316 67.5398 184.79V176.182ZM75.9474 187.193C75.3944 187.193 74.8944 187.091 74.4474 186.886C74.0005 186.678 73.6463 186.377 73.3849 185.983C73.1274 185.589 72.9986 185.106 72.9986 184.534C72.9986 184.042 73.0933 183.636 73.2827 183.318C73.4721 183 73.7277 182.748 74.0497 182.562C74.3717 182.377 74.7315 182.237 75.1293 182.142C75.527 182.047 75.9323 181.975 76.3452 181.926C76.8679 181.866 77.2921 181.816 77.6179 181.778C77.9437 181.737 78.1804 181.67 78.3281 181.58C78.4759 181.489 78.5497 181.341 78.5497 181.136V181.097C78.5497 180.6 78.4096 180.216 78.1293 179.943C77.8527 179.67 77.4399 179.534 76.8906 179.534C76.3187 179.534 75.8679 179.661 75.5384 179.915C75.2126 180.165 74.9872 180.443 74.8622 180.75L73.2656 180.386C73.455 179.856 73.7315 179.428 74.0952 179.102C74.4626 178.773 74.8849 178.534 75.3622 178.386C75.8395 178.235 76.3414 178.159 76.8679 178.159C77.2164 178.159 77.5857 178.201 77.9759 178.284C78.3698 178.364 78.7372 178.511 79.0781 178.727C79.4228 178.943 79.705 179.252 79.9247 179.653C80.1444 180.051 80.2543 180.568 80.2543 181.205V187H78.5952V185.807H78.527C78.4171 186.027 78.2524 186.242 78.0327 186.455C77.813 186.667 77.5308 186.843 77.1861 186.983C76.8414 187.123 76.4285 187.193 75.9474 187.193ZM76.3168 185.83C76.7865 185.83 77.188 185.737 77.5213 185.551C77.8584 185.366 78.1141 185.123 78.2884 184.824C78.4664 184.521 78.5554 184.197 78.5554 183.852V182.727C78.4948 182.788 78.3774 182.845 78.2031 182.898C78.0327 182.947 77.8376 182.991 77.6179 183.028C77.3982 183.062 77.1842 183.095 76.9759 183.125C76.7675 183.152 76.5933 183.174 76.4531 183.193C76.1236 183.235 75.8224 183.305 75.5497 183.403C75.2808 183.502 75.0649 183.644 74.902 183.83C74.7429 184.011 74.6634 184.254 74.6634 184.557C74.6634 184.977 74.8187 185.295 75.1293 185.511C75.4399 185.723 75.8357 185.83 76.3168 185.83ZM83.017 187V178.273H84.7159V187H83.017ZM83.875 176.926C83.5795 176.926 83.3258 176.828 83.1136 176.631C82.9053 176.43 82.8011 176.191 82.8011 175.915C82.8011 175.634 82.9053 175.396 83.1136 175.199C83.3258 174.998 83.5795 174.898 83.875 174.898C84.1705 174.898 84.4223 174.998 84.6307 175.199C84.8428 175.396 84.9489 175.634 84.9489 175.915C84.9489 176.191 84.8428 176.43 84.6307 176.631C84.4223 176.828 84.1705 176.926 83.875 176.926ZM92.3722 187V175.364H96.6335C97.4593 175.364 98.143 175.5 98.6847 175.773C99.2263 176.042 99.6316 176.407 99.9006 176.869C100.17 177.328 100.304 177.845 100.304 178.42C100.304 178.905 100.215 179.314 100.037 179.648C99.8589 179.977 99.6203 180.242 99.321 180.443C99.0256 180.64 98.6998 180.784 98.3438 180.875V180.989C98.7301 181.008 99.107 181.133 99.4744 181.364C99.8456 181.591 100.152 181.915 100.395 182.335C100.637 182.756 100.759 183.267 100.759 183.869C100.759 184.464 100.618 184.998 100.338 185.472C100.062 185.941 99.6335 186.314 99.054 186.591C98.4744 186.864 97.7339 187 96.8324 187H92.3722ZM94.1278 185.494H96.6619C97.5028 185.494 98.1051 185.331 98.4688 185.006C98.8324 184.68 99.0142 184.273 99.0142 183.784C99.0142 183.417 98.9214 183.08 98.7358 182.773C98.5502 182.466 98.285 182.222 97.9403 182.04C97.5994 181.858 97.1941 181.767 96.7244 181.767H94.1278V185.494ZM94.1278 180.398H96.4801C96.8741 180.398 97.2282 180.322 97.5426 180.17C97.8608 180.019 98.1127 179.807 98.2983 179.534C98.4877 179.258 98.5824 178.932 98.5824 178.557C98.5824 178.076 98.4138 177.672 98.0767 177.347C97.7396 177.021 97.2225 176.858 96.5256 176.858H94.1278V180.398ZM103.205 187V178.273H104.847V179.659H104.938C105.097 179.189 105.377 178.82 105.778 178.551C106.184 178.278 106.642 178.142 107.153 178.142C107.259 178.142 107.384 178.146 107.528 178.153C107.676 178.161 107.792 178.17 107.875 178.182V179.807C107.807 179.788 107.686 179.767 107.511 179.744C107.337 179.718 107.163 179.705 106.989 179.705C106.587 179.705 106.229 179.79 105.915 179.96C105.604 180.127 105.358 180.36 105.176 180.659C104.994 180.955 104.903 181.292 104.903 181.67V187H103.205ZM112.307 187.193C111.754 187.193 111.254 187.091 110.807 186.886C110.36 186.678 110.006 186.377 109.744 185.983C109.487 185.589 109.358 185.106 109.358 184.534C109.358 184.042 109.453 183.636 109.642 183.318C109.831 183 110.087 182.748 110.409 182.562C110.731 182.377 111.091 182.237 111.489 182.142C111.886 182.047 112.292 181.975 112.705 181.926C113.227 181.866 113.652 181.816 113.977 181.778C114.303 181.737 114.54 181.67 114.688 181.58C114.835 181.489 114.909 181.341 114.909 181.136V181.097C114.909 180.6 114.769 180.216 114.489 179.943C114.212 179.67 113.799 179.534 113.25 179.534C112.678 179.534 112.227 179.661 111.898 179.915C111.572 180.165 111.347 180.443 111.222 180.75L109.625 180.386C109.814 179.856 110.091 179.428 110.455 179.102C110.822 178.773 111.244 178.534 111.722 178.386C112.199 178.235 112.701 178.159 113.227 178.159C113.576 178.159 113.945 178.201 114.335 178.284C114.729 178.364 115.097 178.511 115.438 178.727C115.782 178.943 116.064 179.252 116.284 179.653C116.504 180.051 116.614 180.568 116.614 181.205V187H114.955V185.807H114.886C114.777 186.027 114.612 186.242 114.392 186.455C114.172 186.667 113.89 186.843 113.545 186.983C113.201 187.123 112.788 187.193 112.307 187.193ZM112.676 185.83C113.146 185.83 113.547 185.737 113.881 185.551C114.218 185.366 114.473 185.123 114.648 184.824C114.826 184.521 114.915 184.197 114.915 183.852V182.727C114.854 182.788 114.737 182.845 114.562 182.898C114.392 182.947 114.197 182.991 113.977 183.028C113.758 183.062 113.544 183.095 113.335 183.125C113.127 183.152 112.953 183.174 112.812 183.193C112.483 183.235 112.182 183.305 111.909 183.403C111.64 183.502 111.424 183.644 111.261 183.83C111.102 184.011 111.023 184.254 111.023 184.557C111.023 184.977 111.178 185.295 111.489 185.511C111.799 185.723 112.195 185.83 112.676 185.83ZM123.053 187.176C122.208 187.176 121.481 186.985 120.871 186.602C120.265 186.216 119.799 185.684 119.473 185.006C119.147 184.328 118.984 183.551 118.984 182.676C118.984 181.79 119.151 181.008 119.484 180.33C119.818 179.648 120.287 179.116 120.893 178.733C121.5 178.35 122.214 178.159 123.036 178.159C123.698 178.159 124.289 178.282 124.808 178.528C125.327 178.771 125.746 179.112 126.064 179.551C126.386 179.991 126.577 180.504 126.638 181.091H124.984C124.893 180.682 124.685 180.33 124.359 180.034C124.037 179.739 123.606 179.591 123.064 179.591C122.59 179.591 122.176 179.716 121.82 179.966C121.467 180.212 121.193 180.564 120.996 181.023C120.799 181.477 120.7 182.015 120.7 182.636C120.7 183.273 120.797 183.822 120.99 184.284C121.183 184.746 121.456 185.104 121.808 185.358C122.164 185.612 122.583 185.739 123.064 185.739C123.386 185.739 123.678 185.68 123.939 185.562C124.204 185.441 124.426 185.269 124.604 185.045C124.786 184.822 124.912 184.553 124.984 184.239H126.638C126.577 184.803 126.393 185.307 126.087 185.75C125.78 186.193 125.369 186.542 124.854 186.795C124.342 187.049 123.742 187.176 123.053 187.176ZM130.653 181.818V187H128.955V175.364H130.631V179.693H130.739C130.943 179.223 131.256 178.85 131.676 178.574C132.097 178.297 132.646 178.159 133.324 178.159C133.922 178.159 134.445 178.282 134.892 178.528C135.343 178.775 135.691 179.142 135.938 179.631C136.188 180.116 136.312 180.722 136.312 181.449V187H134.614V181.653C134.614 181.013 134.449 180.517 134.119 180.165C133.79 179.809 133.331 179.631 132.744 179.631C132.343 179.631 131.983 179.716 131.665 179.886C131.35 180.057 131.102 180.307 130.92 180.636C130.742 180.962 130.653 181.356 130.653 181.818ZM141.619 187.193C141.066 187.193 140.566 187.091 140.119 186.886C139.672 186.678 139.318 186.377 139.057 185.983C138.799 185.589 138.67 185.106 138.67 184.534C138.67 184.042 138.765 183.636 138.955 183.318C139.144 183 139.4 182.748 139.722 182.562C140.044 182.377 140.403 182.237 140.801 182.142C141.199 182.047 141.604 181.975 142.017 181.926C142.54 181.866 142.964 181.816 143.29 181.778C143.616 181.737 143.852 181.67 144 181.58C144.148 181.489 144.222 181.341 144.222 181.136V181.097C144.222 180.6 144.081 180.216 143.801 179.943C143.525 179.67 143.112 179.534 142.562 179.534C141.991 179.534 141.54 179.661 141.21 179.915C140.884 180.165 140.659 180.443 140.534 180.75L138.938 180.386C139.127 179.856 139.403 179.428 139.767 179.102C140.134 178.773 140.557 178.534 141.034 178.386C141.511 178.235 142.013 178.159 142.54 178.159C142.888 178.159 143.258 178.201 143.648 178.284C144.042 178.364 144.409 178.511 144.75 178.727C145.095 178.943 145.377 179.252 145.597 179.653C145.816 180.051 145.926 180.568 145.926 181.205V187H144.267V185.807H144.199C144.089 186.027 143.924 186.242 143.705 186.455C143.485 186.667 143.203 186.843 142.858 186.983C142.513 187.123 142.1 187.193 141.619 187.193ZM141.989 185.83C142.458 185.83 142.86 185.737 143.193 185.551C143.53 185.366 143.786 185.123 143.96 184.824C144.138 184.521 144.227 184.197 144.227 183.852V182.727C144.167 182.788 144.049 182.845 143.875 182.898C143.705 182.947 143.509 182.991 143.29 183.028C143.07 183.062 142.856 183.095 142.648 183.125C142.439 183.152 142.265 183.174 142.125 183.193C141.795 183.235 141.494 183.305 141.222 183.403C140.953 183.502 140.737 183.644 140.574 183.83C140.415 184.011 140.335 184.254 140.335 184.557C140.335 184.977 140.491 185.295 140.801 185.511C141.112 185.723 141.508 185.83 141.989 185.83Z" fill="white"/>
<path d="M197.415 158.273L200.006 165.619H200.108L202.699 158.273H203.807L200.602 167H199.511L196.307 158.273H197.415ZM205.274 167H204.166L207.371 158.273H208.462L211.666 167H210.558L207.95 159.653H207.882L205.274 167ZM205.683 163.591H210.149V164.528H205.683V163.591ZM213.526 167V158.273H214.582V166.062H218.639V167H213.526ZM221.832 158.273V167H220.776V158.273H221.832ZM227.145 167H224.451V158.273H227.264C228.11 158.273 228.835 158.447 229.437 158.797C230.039 159.143 230.501 159.642 230.822 160.293C231.143 160.94 231.304 161.716 231.304 162.619C231.304 163.528 231.142 164.311 230.818 164.967C230.494 165.621 230.022 166.124 229.403 166.476C228.784 166.825 228.031 167 227.145 167ZM225.508 166.062H227.076C227.798 166.062 228.396 165.923 228.87 165.645C229.345 165.366 229.699 164.97 229.931 164.456C230.164 163.942 230.281 163.33 230.281 162.619C230.281 161.915 230.166 161.308 229.936 160.8C229.706 160.288 229.362 159.896 228.904 159.624C228.447 159.348 227.877 159.21 227.196 159.21H225.508V166.062ZM236.974 159.21V158.273H243.52V159.21H240.775V167H239.718V159.21H236.974ZM245.651 167V158.273H246.707V162.159H251.361V158.273H252.418V167H251.361V163.097H246.707V167H245.651ZM255.033 167V158.273H257.982C258.664 158.273 259.224 158.389 259.661 158.622C260.099 158.852 260.423 159.169 260.633 159.572C260.843 159.976 260.948 160.435 260.948 160.949C260.948 161.463 260.843 161.919 260.633 162.317C260.423 162.714 260.1 163.027 259.665 163.254C259.231 163.479 258.675 163.591 257.999 163.591H255.613V162.636H257.965C258.431 162.636 258.806 162.568 259.09 162.432C259.377 162.295 259.585 162.102 259.712 161.852C259.843 161.599 259.908 161.298 259.908 160.949C259.908 160.599 259.843 160.294 259.712 160.033C259.582 159.771 259.373 159.57 259.086 159.428C258.799 159.283 258.42 159.21 257.948 159.21H256.09V167H255.033ZM259.141 163.08L261.289 167H260.062L257.948 163.08H259.141ZM268.936 158.273H269.993V164.051C269.993 164.648 269.853 165.18 269.571 165.649C269.293 166.115 268.9 166.483 268.391 166.753C267.882 167.02 267.286 167.153 266.601 167.153C265.917 167.153 265.32 167.02 264.811 166.753C264.303 166.483 263.908 166.115 263.627 165.649C263.348 165.18 263.209 164.648 263.209 164.051V158.273H264.266V163.966C264.266 164.392 264.36 164.771 264.547 165.104C264.735 165.433 265.002 165.693 265.348 165.884C265.698 166.071 266.115 166.165 266.601 166.165C267.087 166.165 267.505 166.071 267.854 165.884C268.203 165.693 268.471 165.433 268.655 165.104C268.843 164.771 268.936 164.392 268.936 163.966V158.273Z" fill="white"/>
<path d="M68.9773 158.273V167H67.9545L63.1989 160.148H63.1136V167H62.0568V158.273H63.0795L67.8523 165.142H67.9375V158.273H68.9773ZM71.9499 167H70.842L74.0465 158.273H75.1374L78.342 167H77.234L74.6261 159.653H74.5579L71.9499 167ZM72.359 163.591H76.8249V164.528H72.359V163.591ZM80.2013 158.273H81.4627L84.4286 165.517H84.5309L87.4968 158.273H88.7582V167H87.7695V160.369H87.6843L84.957 167H84.0025L81.2752 160.369H81.19V167H80.2013V158.273ZM91.3771 167V158.273H96.6442V159.21H92.4339V162.159H96.3714V163.097H92.4339V166.062H96.7124V167H91.3771Z" fill="white"/>
<path d="M299.08 162H298.023C297.96 161.696 297.851 161.429 297.695 161.199C297.541 160.969 297.354 160.776 297.132 160.619C296.913 160.46 296.67 160.341 296.403 160.261C296.136 160.182 295.858 160.142 295.568 160.142C295.04 160.142 294.561 160.276 294.132 160.543C293.706 160.81 293.366 161.203 293.114 161.723C292.864 162.243 292.739 162.881 292.739 163.636C292.739 164.392 292.864 165.03 293.114 165.55C293.366 166.07 293.706 166.463 294.132 166.73C294.561 166.997 295.04 167.131 295.568 167.131C295.858 167.131 296.136 167.091 296.403 167.011C296.67 166.932 296.913 166.814 297.132 166.658C297.354 166.499 297.541 166.304 297.695 166.074C297.851 165.841 297.96 165.574 298.023 165.273H299.08C299 165.719 298.855 166.118 298.645 166.47C298.435 166.822 298.173 167.122 297.861 167.369C297.548 167.614 297.197 167.8 296.808 167.928C296.422 168.055 296.009 168.119 295.568 168.119C294.824 168.119 294.162 167.938 293.582 167.574C293.003 167.21 292.547 166.693 292.214 166.023C291.882 165.352 291.716 164.557 291.716 163.636C291.716 162.716 291.882 161.92 292.214 161.25C292.547 160.58 293.003 160.062 293.582 159.699C294.162 159.335 294.824 159.153 295.568 159.153C296.009 159.153 296.422 159.217 296.808 159.345C297.197 159.473 297.548 159.661 297.861 159.908C298.173 160.152 298.435 160.45 298.645 160.803C298.855 161.152 299 161.551 299.08 162ZM301.645 159.273L304.236 166.619H304.338L306.929 159.273H308.037L304.833 168H303.742L300.537 159.273H301.645ZM310.255 159.273L312.846 166.619H312.948L315.539 159.273H316.647L313.442 168H312.351L309.147 159.273H310.255Z" fill="white"/>
<path d="M68.2429 99.5455V74.0909H69.8736V99.5455H68.2429ZM73.3438 81.9858C73.2377 81.0445 72.8002 80.3153 72.0312 79.7983C71.2623 79.2746 70.2945 79.0128 69.1278 79.0128C68.2926 79.0128 67.5701 79.1454 66.9602 79.4105C66.3504 79.669 65.8764 80.027 65.5384 80.4844C65.2069 80.9351 65.0412 81.4489 65.0412 82.0256C65.0412 82.5095 65.1539 82.9271 65.3793 83.2784C65.6113 83.6297 65.9129 83.9247 66.2841 84.1634C66.6619 84.3954 67.0663 84.5909 67.4972 84.75C67.928 84.9025 68.3423 85.0284 68.7401 85.1278L70.7287 85.6449C71.3783 85.804 72.0445 86.0194 72.7273 86.2912C73.41 86.563 74.0431 86.9209 74.6264 87.3651C75.2098 87.8092 75.6804 88.3594 76.0384 89.0156C76.4029 89.6719 76.5852 90.4574 76.5852 91.3722C76.5852 92.5256 76.2869 93.5497 75.6903 94.4446C75.1004 95.3395 74.242 96.0455 73.1151 96.5625C71.9948 97.0795 70.6392 97.3381 69.0483 97.3381C67.5237 97.3381 66.2045 97.0961 65.0909 96.6122C63.9773 96.1283 63.1056 95.4422 62.4759 94.554C61.8461 93.6591 61.4981 92.5985 61.4318 91.3722H64.5142C64.5739 92.108 64.8125 92.7211 65.2301 93.2116C65.6544 93.6955 66.1946 94.0568 66.8509 94.2955C67.5137 94.5275 68.2396 94.6435 69.0284 94.6435C69.8968 94.6435 70.669 94.5076 71.3452 94.2358C72.0279 93.9574 72.5649 93.5729 72.956 93.0824C73.3471 92.5852 73.5426 92.0052 73.5426 91.3423C73.5426 90.7391 73.3703 90.2453 73.0256 89.8608C72.6875 89.4763 72.2268 89.1581 71.6435 88.9062C71.0668 88.6544 70.4138 88.4323 69.6847 88.2401L67.2784 87.5838C65.6477 87.1397 64.3551 86.4867 63.4006 85.625C62.4527 84.7633 61.9787 83.6231 61.9787 82.2045C61.9787 81.0312 62.2969 80.0071 62.9332 79.1321C63.5696 78.2571 64.4313 77.5777 65.5185 77.0938C66.6056 76.6032 67.8319 76.358 69.1974 76.358C70.5762 76.358 71.7926 76.5999 72.8466 77.0838C73.9072 77.5677 74.7424 78.2339 75.3523 79.0824C75.9621 79.9242 76.2803 80.892 76.3068 81.9858H73.3438ZM79.5508 93.0227V90.5369L88.3505 76.6364H90.3093V80.2955H89.0664L82.7724 90.2585V90.4176H94.8335V93.0227H79.5508ZM89.2056 97V92.267L89.2255 91.1335V76.6364H92.1388V97H89.2056ZM101.441 94.2159L101.292 95.2997C101.192 96.0952 101.023 96.9238 100.784 97.7855C100.552 98.6539 100.31 99.4593 100.059 100.202C99.8133 100.944 99.6112 101.534 99.4521 101.972H97.3441C97.4303 101.561 97.5496 101.004 97.7021 100.301C97.8545 99.6051 98.0037 98.8262 98.1495 97.9645C98.2953 97.1027 98.4047 96.2244 98.4776 95.3295L98.5771 94.2159H101.441ZM111.993 97.2784C110.747 97.2784 109.626 97.0398 108.632 96.5625C107.644 96.0786 106.856 95.4157 106.266 94.5739C105.676 93.732 105.361 92.7708 105.321 91.6903H108.304C108.377 92.5653 108.765 93.2846 109.467 93.848C110.17 94.4115 111.012 94.6932 111.993 94.6932C112.775 94.6932 113.468 94.5142 114.071 94.1562C114.681 93.7917 115.158 93.2912 115.503 92.6548C115.854 92.0185 116.03 91.2926 116.03 90.4773C116.03 89.6487 115.851 88.9096 115.493 88.2599C115.135 87.6103 114.641 87.0999 114.011 86.7287C113.388 86.3575 112.672 86.1686 111.864 86.1619C111.247 86.1619 110.627 86.268 110.004 86.4801C109.381 86.6922 108.877 86.9706 108.493 87.3153L105.679 86.8977L106.822 76.6364H118.018V79.2713H109.378L108.732 84.9688H108.851C109.249 84.5843 109.776 84.2628 110.432 84.0043C111.095 83.7457 111.804 83.6165 112.56 83.6165C113.799 83.6165 114.903 83.9115 115.871 84.5014C116.845 85.0914 117.611 85.8968 118.168 86.9176C118.731 87.9318 119.009 89.0985 119.003 90.4176C119.009 91.7367 118.711 92.9134 118.108 93.9474C117.511 94.9815 116.683 95.7969 115.622 96.3935C114.568 96.9834 113.358 97.2784 111.993 97.2784ZM123.321 97L132.21 79.4205V79.2713H121.929V76.6364H135.392V79.3608L126.532 97H123.321ZM145.501 97.3381C143.93 97.3314 142.588 96.9171 141.474 96.0952C140.361 95.2732 139.509 94.0767 138.919 92.5057C138.329 90.9347 138.034 89.0421 138.034 86.8281C138.034 84.6207 138.329 82.7348 138.919 81.1705C139.516 79.6061 140.371 78.4129 141.484 77.5909C142.605 76.7689 143.944 76.358 145.501 76.358C147.059 76.358 148.395 76.7723 149.509 77.6009C150.622 78.4228 151.474 79.616 152.064 81.1804C152.661 82.7382 152.959 84.6207 152.959 86.8281C152.959 89.0488 152.664 90.9446 152.074 92.5156C151.484 94.08 150.632 95.2765 149.518 96.1051C148.405 96.9271 147.066 97.3381 145.501 97.3381ZM145.501 94.6832C146.88 94.6832 147.957 94.0104 148.733 92.6648C149.515 91.3191 149.906 89.3736 149.906 86.8281C149.906 85.1378 149.727 83.7093 149.369 82.5426C149.018 81.3693 148.511 80.4811 147.848 79.8778C147.192 79.268 146.41 78.9631 145.501 78.9631C144.129 78.9631 143.052 79.6392 142.27 80.9915C141.488 82.3437 141.093 84.2893 141.087 86.8281C141.087 88.5251 141.262 89.9602 141.614 91.1335C141.972 92.3002 142.479 93.1851 143.135 93.7884C143.791 94.3849 144.58 94.6832 145.501 94.6832ZM159.656 94.2159L159.506 95.2997C159.407 96.0952 159.238 96.9238 158.999 97.7855C158.767 98.6539 158.525 99.4593 158.273 100.202C158.028 100.944 157.826 101.534 157.667 101.972H155.559C155.645 101.561 155.764 101.004 155.917 100.301C156.069 99.6051 156.219 98.8262 156.364 97.9645C156.51 97.1027 156.62 96.2244 156.692 95.3295L156.792 94.2159H159.656ZM170.011 97.2784C168.586 97.2784 167.327 97.0331 166.233 96.5426C165.146 96.0521 164.294 95.3759 163.678 94.5142C163.061 93.6525 162.756 92.6714 162.763 91.571C162.756 90.7093 162.932 89.9171 163.29 89.1946C163.654 88.4654 164.148 87.8589 164.771 87.375C165.394 86.8845 166.09 86.5729 166.859 86.4403V86.321C165.845 86.0758 165.033 85.5322 164.423 84.6903C163.813 83.8485 163.512 82.8807 163.518 81.7869C163.512 80.7462 163.787 79.8182 164.344 79.0028C164.907 78.1809 165.679 77.5346 166.661 77.0639C167.642 76.5933 168.759 76.358 170.011 76.358C171.251 76.358 172.358 76.5966 173.332 77.0739C174.313 77.5445 175.086 78.1908 175.649 79.0128C176.213 79.8281 176.498 80.7528 176.504 81.7869C176.498 82.8807 176.186 83.8485 175.57 84.6903C174.953 85.5322 174.151 86.0758 173.163 86.321V86.4403C173.926 86.5729 174.612 86.8845 175.222 87.375C175.838 87.8589 176.329 88.4654 176.693 89.1946C177.064 89.9171 177.253 90.7093 177.26 91.571C177.253 92.6714 176.942 93.6525 176.325 94.5142C175.709 95.3759 174.854 96.0521 173.76 96.5426C172.673 97.0331 171.423 97.2784 170.011 97.2784ZM170.011 94.7628C170.853 94.7628 171.582 94.6236 172.199 94.3452C172.815 94.0601 173.293 93.6657 173.631 93.1619C173.969 92.6515 174.141 92.0549 174.148 91.3722C174.141 90.6629 173.955 90.0365 173.591 89.4929C173.233 88.9493 172.746 88.5218 172.129 88.2102C171.513 87.8987 170.807 87.7429 170.011 87.7429C169.209 87.7429 168.497 87.8987 167.874 88.2102C167.25 88.5218 166.76 88.9493 166.402 89.4929C166.044 90.0365 165.868 90.6629 165.875 91.3722C165.868 92.0549 166.031 92.6515 166.362 93.1619C166.7 93.6657 167.181 94.0601 167.804 94.3452C168.427 94.6236 169.163 94.7628 170.011 94.7628ZM170.011 85.2869C170.688 85.2869 171.287 85.151 171.811 84.8793C172.335 84.6075 172.746 84.2296 173.044 83.7457C173.349 83.2618 173.505 82.6951 173.511 82.0455C173.505 81.4091 173.352 80.8523 173.054 80.375C172.762 79.8977 172.355 79.5298 171.831 79.2713C171.307 79.0062 170.701 78.8736 170.011 78.8736C169.309 78.8736 168.692 79.0062 168.162 79.2713C167.638 79.5298 167.231 79.8977 166.939 80.375C166.647 80.8523 166.505 81.4091 166.511 82.0455C166.505 82.6951 166.651 83.2618 166.949 83.7457C167.247 84.2296 167.658 84.6075 168.182 84.8793C168.712 85.151 169.322 85.2869 170.011 85.2869ZM187.912 97.3381C186.341 97.3314 184.998 96.9171 183.885 96.0952C182.771 95.2732 181.919 94.0767 181.329 92.5057C180.739 90.9347 180.444 89.0421 180.444 86.8281C180.444 84.6207 180.739 82.7348 181.329 81.1705C181.926 79.6061 182.781 78.4129 183.895 77.5909C185.015 76.7689 186.354 76.358 187.912 76.358C189.469 76.358 190.805 76.7723 191.919 77.6009C193.032 78.4228 193.884 79.616 194.474 81.1804C195.071 82.7382 195.369 84.6207 195.369 86.8281C195.369 89.0488 195.074 90.9446 194.484 92.5156C193.894 94.08 193.042 95.2765 191.929 96.1051C190.815 96.9271 189.476 97.3381 187.912 97.3381ZM187.912 94.6832C189.29 94.6832 190.368 94.0104 191.143 92.6648C191.925 91.3191 192.316 89.3736 192.316 86.8281C192.316 85.1378 192.137 83.7093 191.779 82.5426C191.428 81.3693 190.921 80.4811 190.258 79.8778C189.602 79.268 188.82 78.9631 187.912 78.9631C186.539 78.9631 185.462 79.6392 184.68 80.9915C183.898 82.3437 183.503 84.2893 183.497 86.8281C183.497 88.5251 183.672 89.9602 184.024 91.1335C184.382 92.3002 184.889 93.1851 185.545 93.7884C186.201 94.3849 186.99 94.6832 187.912 94.6832Z" fill="white"/>
<path d="M69.5753 55.1293H68.0241C67.9645 54.7978 67.8535 54.5062 67.6911 54.2543C67.5286 54.0024 67.3298 53.7886 67.0945 53.6129C66.8591 53.4373 66.5956 53.3047 66.304 53.2152C66.0156 53.1257 65.709 53.081 65.3842 53.081C64.7976 53.081 64.2723 53.2285 63.8082 53.5234C63.3475 53.8184 62.983 54.2509 62.7145 54.821C62.4493 55.3911 62.3168 56.0871 62.3168 56.9091C62.3168 57.7377 62.4493 58.437 62.7145 59.0071C62.983 59.5772 63.3492 60.008 63.8132 60.2997C64.2772 60.5914 64.7992 60.7372 65.3793 60.7372C65.7008 60.7372 66.0057 60.6941 66.294 60.608C66.5857 60.5185 66.8492 60.3875 67.0845 60.2152C67.3198 60.0429 67.5187 59.8324 67.6811 59.5838C67.8468 59.3319 67.9612 59.0436 68.0241 58.7188L69.5753 58.7237C69.4924 59.2242 69.3317 59.6849 69.093 60.1058C68.8577 60.5234 68.5545 60.8847 68.1832 61.1896C67.8153 61.4912 67.3944 61.7249 66.9205 61.8906C66.4465 62.0563 65.9295 62.1392 65.3693 62.1392C64.4877 62.1392 63.7022 61.9304 63.0128 61.5128C62.3234 61.0919 61.7798 60.4903 61.3821 59.7081C60.9877 58.9259 60.7905 57.9929 60.7905 56.9091C60.7905 55.822 60.9893 54.889 61.3871 54.1101C61.7848 53.3279 62.3284 52.728 63.0178 52.3104C63.7071 51.8894 64.491 51.679 65.3693 51.679C65.9096 51.679 66.4134 51.7569 66.8807 51.9126C67.3513 52.0651 67.7739 52.2905 68.1484 52.5888C68.523 52.8838 68.8329 53.245 69.0781 53.6726C69.3234 54.0968 69.4891 54.5824 69.5753 55.1293ZM76.1316 58.8331V54.3636H77.623V62H76.1614V60.6776H76.0819C75.9062 61.0852 75.6245 61.425 75.2367 61.6967C74.8522 61.9652 74.3733 62.0994 73.7999 62.0994C73.3094 62.0994 72.8752 61.9917 72.4973 61.7763C72.1228 61.5575 71.8278 61.2344 71.6124 60.8068C71.4003 60.3793 71.2942 59.8506 71.2942 59.2209V54.3636H72.7807V59.0419C72.7807 59.5623 72.9249 59.9766 73.2132 60.2848C73.5016 60.593 73.8761 60.7472 74.3368 60.7472C74.6152 60.7472 74.892 60.6776 75.1671 60.5384C75.4455 60.3991 75.6758 60.1887 75.8581 59.907C76.0437 59.6252 76.1349 59.2673 76.1316 58.8331ZM79.6204 62V54.3636H81.0572V55.5767H81.1367C81.2759 55.1657 81.5212 54.8426 81.8725 54.6072C82.2272 54.3686 82.6282 54.2493 83.0756 54.2493C83.1684 54.2493 83.2778 54.2526 83.4038 54.2592C83.533 54.2659 83.6341 54.2741 83.707 54.2841V55.706C83.6474 55.6894 83.5413 55.6712 83.3888 55.6513C83.2364 55.6281 83.0839 55.6165 82.9315 55.6165C82.5801 55.6165 82.2669 55.6911 81.9918 55.8402C81.7201 55.986 81.5046 56.1899 81.3455 56.4517C81.1864 56.7102 81.1069 57.0052 81.1069 57.3366V62H79.6204ZM84.9934 62V54.3636H86.4302V55.5767H86.5098C86.649 55.1657 86.8942 54.8426 87.2456 54.6072C87.6002 54.3686 88.0012 54.2493 88.4487 54.2493C88.5415 54.2493 88.6509 54.2526 88.7768 54.2592C88.9061 54.2659 89.0072 54.2741 89.0801 54.2841V55.706C89.0204 55.6894 88.9144 55.6712 88.7619 55.6513C88.6094 55.6281 88.457 55.6165 88.3045 55.6165C87.9532 55.6165 87.64 55.6911 87.3649 55.8402C87.0931 55.986 86.8777 56.1899 86.7186 56.4517C86.5595 56.7102 86.4799 57.0052 86.4799 57.3366V62H84.9934ZM93.3842 62.1541C92.6319 62.1541 91.9839 61.9934 91.4403 61.6719C90.9001 61.3471 90.4825 60.8913 90.1875 60.3047C89.8958 59.7147 89.75 59.0237 89.75 58.2315C89.75 57.4493 89.8958 56.7599 90.1875 56.1634C90.4825 55.5668 90.8935 55.1011 91.4205 54.7663C91.9508 54.4316 92.5705 54.2642 93.2798 54.2642C93.7107 54.2642 94.1283 54.3355 94.5327 54.478C94.937 54.6205 95.3 54.8442 95.6214 55.1491C95.9429 55.4541 96.1965 55.8501 96.3821 56.3374C96.5677 56.8213 96.6605 57.4096 96.6605 58.1023V58.6293H90.5902V57.5156H95.2038C95.2038 57.1245 95.1243 56.7782 94.9652 56.4766C94.8061 56.1716 94.5824 55.9313 94.294 55.7557C94.009 55.58 93.6742 55.4922 93.2898 55.4922C92.8722 55.4922 92.5076 55.5949 92.196 55.8004C91.8878 56.0026 91.6491 56.2678 91.4801 56.5959C91.3144 56.9207 91.2315 57.2737 91.2315 57.6548V58.5249C91.2315 59.0353 91.321 59.4695 91.5 59.8274C91.6823 60.1854 91.9358 60.4588 92.2607 60.6477C92.5855 60.8333 92.965 60.9261 93.3991 60.9261C93.6809 60.9261 93.9377 60.8864 94.1697 60.8068C94.4018 60.724 94.6023 60.6013 94.7713 60.4389C94.9403 60.2765 95.0696 60.076 95.1591 59.8374L96.5661 60.0909C96.4534 60.5052 96.2512 60.8681 95.9595 61.1797C95.6712 61.4879 95.3082 61.7282 94.8707 61.9006C94.4366 62.0696 93.9411 62.1541 93.3842 62.1541ZM99.7963 57.4659V62H98.3098V54.3636H99.7367V55.6065H99.8311C100.007 55.2022 100.282 54.8774 100.656 54.6321C101.034 54.3868 101.51 54.2642 102.083 54.2642C102.604 54.2642 103.059 54.3736 103.45 54.5923C103.842 54.8078 104.145 55.1293 104.36 55.5568C104.576 55.9844 104.683 56.513 104.683 57.1428V62H103.197V57.3217C103.197 56.7682 103.053 56.3357 102.764 56.0241C102.476 55.7093 102.08 55.5518 101.576 55.5518C101.231 55.5518 100.925 55.6264 100.656 55.7756C100.391 55.9247 100.181 56.1435 100.025 56.4318C99.8726 56.7169 99.7963 57.0616 99.7963 57.4659ZM110.242 54.3636V55.5568H106.07V54.3636H110.242ZM107.189 52.5341H108.676V59.7578C108.676 60.0462 108.719 60.2633 108.805 60.4091C108.891 60.5516 109.002 60.6494 109.138 60.7024C109.277 60.7521 109.428 60.777 109.59 60.777C109.71 60.777 109.814 60.7687 109.904 60.7521C109.993 60.7356 110.063 60.7223 110.112 60.7124L110.381 61.9403C110.295 61.9735 110.172 62.0066 110.013 62.0398C109.854 62.0762 109.655 62.0961 109.416 62.0994C109.025 62.1061 108.661 62.0365 108.323 61.8906C107.985 61.7448 107.711 61.5194 107.502 61.2145C107.294 60.9096 107.189 60.5268 107.189 60.0661V52.5341ZM115.71 62V51.8182H119.439C120.162 51.8182 120.76 51.9375 121.234 52.1761C121.708 52.4115 122.062 52.7313 122.298 53.1357C122.533 53.5367 122.651 53.9891 122.651 54.4929C122.651 54.9171 122.573 55.2751 122.417 55.5668C122.261 55.8551 122.052 56.0871 121.791 56.2628C121.532 56.4351 121.247 56.5611 120.936 56.6406V56.7401C121.274 56.7566 121.603 56.866 121.925 57.0682C122.25 57.267 122.518 57.5504 122.73 57.9183C122.942 58.2862 123.048 58.7337 123.048 59.2607C123.048 59.781 122.926 60.2483 122.681 60.6626C122.439 61.0736 122.064 61.4001 121.557 61.642C121.05 61.8807 120.402 62 119.613 62H115.71ZM117.247 60.6825H119.464C120.2 60.6825 120.727 60.54 121.045 60.255C121.363 59.9699 121.522 59.6136 121.522 59.1861C121.522 58.8646 121.441 58.5696 121.279 58.3011C121.116 58.0327 120.884 57.8189 120.583 57.6598C120.284 57.5007 119.93 57.4212 119.519 57.4212H117.247V60.6825ZM117.247 56.223H119.305C119.65 56.223 119.959 56.1567 120.235 56.0241C120.513 55.8916 120.733 55.706 120.896 55.4673C121.061 55.2254 121.144 54.9403 121.144 54.6122C121.144 54.1913 120.997 53.8383 120.702 53.5533C120.407 53.2682 119.954 53.1257 119.345 53.1257H117.247V56.223ZM126.974 62.169C126.49 62.169 126.052 62.0795 125.661 61.9006C125.27 61.7183 124.96 61.4548 124.731 61.1101C124.506 60.7654 124.393 60.3428 124.393 59.8423C124.393 59.4115 124.476 59.0568 124.642 58.7784C124.808 58.5 125.031 58.2796 125.313 58.1172C125.595 57.9548 125.91 57.8321 126.258 57.7493C126.606 57.6664 126.96 57.6035 127.322 57.5604C127.779 57.5073 128.15 57.4643 128.435 57.4311C128.72 57.3946 128.927 57.3366 129.057 57.2571C129.186 57.1776 129.251 57.0483 129.251 56.8693V56.8345C129.251 56.4003 129.128 56.0639 128.883 55.8253C128.641 55.5866 128.279 55.4673 127.799 55.4673C127.298 55.4673 126.904 55.5784 126.616 55.8004C126.331 56.0192 126.133 56.2628 126.024 56.5312L124.627 56.2131C124.793 55.7491 125.035 55.3745 125.353 55.0895C125.674 54.8011 126.044 54.5923 126.461 54.4631C126.879 54.3305 127.318 54.2642 127.779 54.2642C128.084 54.2642 128.407 54.3007 128.748 54.3736C129.093 54.4432 129.415 54.5724 129.713 54.7614C130.015 54.9503 130.261 55.2204 130.454 55.5717C130.646 55.9197 130.742 56.3722 130.742 56.929V62H129.29V60.956H129.231C129.135 61.1482 128.99 61.3371 128.798 61.5227C128.606 61.7083 128.359 61.8625 128.057 61.9851C127.756 62.1077 127.394 62.169 126.974 62.169ZM127.297 60.9759C127.708 60.9759 128.059 60.8946 128.351 60.7322C128.646 60.5698 128.869 60.3577 129.022 60.0959C129.178 59.8307 129.256 59.5473 129.256 59.2457V58.2614C129.202 58.3144 129.1 58.3641 128.947 58.4105C128.798 58.4536 128.627 58.4917 128.435 58.5249C128.243 58.5547 128.056 58.5829 127.873 58.6094C127.691 58.6326 127.539 58.6525 127.416 58.669C127.128 58.7055 126.864 58.7668 126.626 58.853C126.39 58.9392 126.201 59.0634 126.059 59.2259C125.92 59.3849 125.85 59.5971 125.85 59.8622C125.85 60.2301 125.986 60.5085 126.258 60.6974C126.529 60.883 126.876 60.9759 127.297 60.9759ZM134.208 51.8182V62H132.722V51.8182H134.208ZM138.431 62.169C137.947 62.169 137.509 62.0795 137.118 61.9006C136.727 61.7183 136.417 61.4548 136.188 61.1101C135.963 60.7654 135.85 60.3428 135.85 59.8423C135.85 59.4115 135.933 59.0568 136.099 58.7784C136.265 58.5 136.488 58.2796 136.77 58.1172C137.052 57.9548 137.367 57.8321 137.715 57.7493C138.063 57.6664 138.417 57.6035 138.779 57.5604C139.236 57.5073 139.607 57.4643 139.892 57.4311C140.177 57.3946 140.384 57.3366 140.514 57.2571C140.643 57.1776 140.708 57.0483 140.708 56.8693V56.8345C140.708 56.4003 140.585 56.0639 140.34 55.8253C140.098 55.5866 139.736 55.4673 139.256 55.4673C138.755 55.4673 138.361 55.5784 138.073 55.8004C137.788 56.0192 137.59 56.2628 137.481 56.5312L136.084 56.2131C136.25 55.7491 136.492 55.3745 136.81 55.0895C137.131 54.8011 137.501 54.5923 137.919 54.4631C138.336 54.3305 138.775 54.2642 139.236 54.2642C139.541 54.2642 139.864 54.3007 140.205 54.3736C140.55 54.4432 140.872 54.5724 141.17 54.7614C141.472 54.9503 141.718 55.2204 141.911 55.5717C142.103 55.9197 142.199 56.3722 142.199 56.929V62H140.747V60.956H140.688C140.592 61.1482 140.447 61.3371 140.255 61.5227C140.063 61.7083 139.816 61.8625 139.514 61.9851C139.213 62.1077 138.852 62.169 138.431 62.169ZM138.754 60.9759C139.165 60.9759 139.516 60.8946 139.808 60.7322C140.103 60.5698 140.326 60.3577 140.479 60.0959C140.635 59.8307 140.713 59.5473 140.713 59.2457V58.2614C140.66 58.3144 140.557 58.3641 140.404 58.4105C140.255 58.4536 140.084 58.4917 139.892 58.5249C139.7 58.5547 139.513 58.5829 139.33 58.6094C139.148 58.6326 138.996 58.6525 138.873 58.669C138.585 58.7055 138.321 58.7668 138.083 58.853C137.847 58.9392 137.658 59.0634 137.516 59.2259C137.377 59.3849 137.307 59.5971 137.307 59.8622C137.307 60.2301 137.443 60.5085 137.715 60.6974C137.986 60.883 138.333 60.9759 138.754 60.9759ZM145.665 57.4659V62H144.179V54.3636H145.606V55.6065H145.7C145.876 55.2022 146.151 54.8774 146.526 54.6321C146.903 54.3868 147.379 54.2642 147.952 54.2642C148.473 54.2642 148.929 54.3736 149.32 54.5923C149.711 54.8078 150.014 55.1293 150.229 55.5568C150.445 55.9844 150.553 56.513 150.553 57.1428V62H149.066V57.3217C149.066 56.7682 148.922 56.3357 148.634 56.0241C148.345 55.7093 147.949 55.5518 147.445 55.5518C147.101 55.5518 146.794 55.6264 146.526 55.7756C146.26 55.9247 146.05 56.1435 145.894 56.4318C145.742 56.7169 145.665 57.0616 145.665 57.4659ZM155.763 62.1541C155.024 62.1541 154.387 61.9867 153.854 61.652C153.323 61.3139 152.916 60.8482 152.631 60.255C152.346 59.6617 152.203 58.9822 152.203 58.2166C152.203 57.4411 152.349 56.7566 152.641 56.1634C152.932 55.5668 153.343 55.1011 153.874 54.7663C154.404 54.4316 155.029 54.2642 155.748 54.2642C156.328 54.2642 156.845 54.3719 157.299 54.5874C157.753 54.7995 158.119 55.0978 158.398 55.4822C158.679 55.8667 158.847 56.3158 158.9 56.8295H157.453C157.374 56.4716 157.191 56.1634 156.906 55.9048C156.625 55.6463 156.247 55.517 155.773 55.517C155.358 55.517 154.996 55.6264 154.684 55.8452C154.376 56.0606 154.135 56.3688 153.963 56.7699C153.791 57.1676 153.705 57.6383 153.705 58.1818C153.705 58.7386 153.789 59.2192 153.958 59.6236C154.127 60.0279 154.366 60.3411 154.674 60.5632C154.986 60.7853 155.352 60.8963 155.773 60.8963C156.054 60.8963 156.31 60.8449 156.538 60.7422C156.77 60.6361 156.964 60.4853 157.12 60.2898C157.279 60.0942 157.39 59.8589 157.453 59.5838H158.9C158.847 60.0777 158.686 60.5185 158.418 60.9062C158.149 61.294 157.79 61.599 157.339 61.821C156.891 62.0431 156.366 62.1541 155.763 62.1541ZM163.781 62.1541C163.028 62.1541 162.38 61.9934 161.837 61.6719C161.297 61.3471 160.879 60.8913 160.584 60.3047C160.292 59.7147 160.146 59.0237 160.146 58.2315C160.146 57.4493 160.292 56.7599 160.584 56.1634C160.879 55.5668 161.29 55.1011 161.817 54.7663C162.347 54.4316 162.967 54.2642 163.676 54.2642C164.107 54.2642 164.525 54.3355 164.929 54.478C165.334 54.6205 165.696 54.8442 166.018 55.1491C166.339 55.4541 166.593 55.8501 166.779 56.3374C166.964 56.8213 167.057 57.4096 167.057 58.1023V58.6293H160.987V57.5156H165.6C165.6 57.1245 165.521 56.7782 165.362 56.4766C165.203 56.1716 164.979 55.9313 164.691 55.7557C164.405 55.58 164.071 55.4922 163.686 55.4922C163.269 55.4922 162.904 55.5949 162.593 55.8004C162.284 56.0026 162.046 56.2678 161.877 56.5959C161.711 56.9207 161.628 57.2737 161.628 57.6548V58.5249C161.628 59.0353 161.718 59.4695 161.896 59.8274C162.079 60.1854 162.332 60.4588 162.657 60.6477C162.982 60.8333 163.361 60.9261 163.796 60.9261C164.077 60.9261 164.334 60.8864 164.566 60.8068C164.798 60.724 164.999 60.6013 165.168 60.4389C165.337 60.2765 165.466 60.076 165.556 59.8374L166.963 60.0909C166.85 60.5052 166.648 60.8681 166.356 61.1797C166.068 61.4879 165.705 61.7282 165.267 61.9006C164.833 62.0696 164.338 62.1541 163.781 62.1541Z" fill="white"/>
<defs>
<filter id="filter0_d_1_52" x="0" y="0" width="375" height="244" filterUnits="userSpaceOnUse" color-interpolation-filters="sRGB">
<feFlood flood-opacity="0" result="BackgroundImageFix"/>
<feColorMatrix in="SourceAlpha" type="matrix" values="0 0 0 0 0 0 0 0 0 0 0 0 0 0 0 0 0 0 127 0" result="hardAlpha"/>
<feOffset dy="4"/>
<feGaussianBlur stdDeviation="15"/>
<feComposite in2="hardAlpha" operator="out"/>
<feColorMatrix type="matrix" values="0 0 0 0 0 0 0 0 0 0 0 0 0 0 0 0 0 0 0.12 0"/>
<feBlend mode="normal" in2="BackgroundImageFix" result="effect1_dropShadow_1_52"/>
<feBlend mode="normal" in="SourceGraphic" in2="effect1_dropShadow_1_52" result="shape"/>
</filter>
<linearGradient id="paint0_linear_1_52" x1="96.15" y1="63.904" x2="183.668" y2="235.356" gradientUnits="userSpaceOnUse">
<stop stop-color="#0ACF83"/>
<stop offset="1" stop-color="#0BB967"/>
</linearGradient>
<clipPath id="clip0_1_52">
<rect width="45" height="14" fill="white" transform="translate(273 54)"/>
</clipPath>
</defs>
</svg>
