<svg width="20" height="25" viewBox="0 0 20 25" fill="none" xmlns="http://www.w3.org/2000/svg">
<path d="M17.6872 0.973687L7.54679 4.72368L7.51337 4.74374H7.50668L1.83155 6.83599C1.65776 6.89615 1.50401 6.97636 1.35695 7.06326C0.528074 7.55791 0.00668694 8.467 0.00668694 9.46299V10.4523L0.975938 10.0913L1.75134 9.8039L7.16578 7.80524L10.5815 6.54187L15.4412 4.75042L17.5735 3.97502C17.8275 3.88144 18.0749 4.06861 18.0749 4.3293V5.99374C18.0749 6.14748 17.988 6.29454 17.8342 6.34802L13.1083 8.08598L11.2567 8.7678L2.0254 12.1702L0.969251 12.5579L0 12.9122V23.0258C0 23.086 -8.16775e-07 23.1461 0.0200527 23.2063C0.0267371 23.2732 0.0401061 23.3534 0.0534751 23.4202C0.160427 23.9149 0.46123 24.336 0.902406 24.5967L1.06952 24.6903L1.06284 24.6702C0.648397 24.3694 0.381017 23.8748 0.381017 23.3133C0.381017 22.7852 0.621658 22.3173 1.00267 22.0165C1.10963 21.9296 1.21658 21.8627 1.3369 21.8026C1.44385 21.7491 14.3249 17.0098 14.3249 17.0098L18.4692 15.479L18.877 15.332C19.5521 15.078 19.9933 14.4429 19.9933 13.7344V0.124756L17.6872 0.973687ZM5.06016 17.3707C5.06016 17.598 4.9131 17.7919 4.70588 17.8721L3.52273 18.3066C3.17513 18.4336 2.80749 18.1796 2.80749 17.8052V16.8026C2.80749 16.5753 2.94786 16.3814 3.15508 16.3012L4.32487 15.8667C4.68583 15.7397 5.06016 15.9937 5.06016 16.3681V17.3707Z" fill="#0ACF83"/>
</svg>
