<svg width="20" height="20" viewBox="0 0 20 20" fill="none" xmlns="http://www.w3.org/2000/svg">
<path d="M17.2219 17.3343H2.78377C2.34282 17.3343 1.98431 17.6956 1.98431 18.1337V19.2006C1.98431 19.6415 2.34564 20 2.78377 20H17.2162C17.6572 20 18.0156 19.6387 18.0156 19.2006V18.1337C18.0242 17.6899 17.6629 17.3343 17.2219 17.3343Z" fill="white"/>
<path d="M9.44381 15.9033C9.6003 16.0598 9.80513 16.1394 10.0071 16.1394C10.2119 16.1394 10.4168 16.0598 10.5704 15.9033L16.0384 10.4353C16.3485 10.1252 16.3485 9.6188 16.0384 9.30299L15.2817 8.54623C14.9715 8.23611 14.4651 8.23611 14.1494 8.54623L11.3385 11.3599V0.79945C11.3385 0.358464 10.9772 0 10.5391 0H9.47225C9.0313 0 8.6728 0.3556 8.6728 0.79945V11.3627L5.85916 8.54906C5.54904 8.23898 5.03981 8.23898 4.72687 8.54906L3.97011 9.30582C3.66003 9.6159 3.66003 10.1252 3.97011 10.4381L9.44381 15.9033Z" fill="white"/>
</svg>
