<svg width="16" height="16" viewBox="0 0 16 16" fill="none" xmlns="http://www.w3.org/2000/svg">
<path d="M13.6569 2.35909C12.1458 0.837826 10.1369 0 8 0C5.86312 0 3.85416 0.837826 2.34313 2.35909C0.835 3.87752 0.00315625 5.93907 0 8.08597C0 9.9488 0.645781 11.7532 1.81963 13.1891C2.97738 14.6054 4.59203 15.5894 6.36616 15.9601C6.49419 15.9868 6.62297 16 6.75084 16C7.17812 16 7.59456 15.8531 7.93325 15.5756C8.3725 15.2158 8.62447 14.6824 8.62459 14.1123L8.625 11.3908C10.0141 11.1058 11.0626 9.86633 11.0626 8.38487V6.76453C11.0626 6.41699 10.7828 6.13527 10.4376 6.13527H9.90631V4.53066C9.90631 4.18312 9.6265 3.9014 9.28131 3.9014C8.93613 3.9014 8.65631 4.18312 8.65631 4.53066V6.13527H7.40631V4.53066C7.40631 4.18312 7.1265 3.9014 6.78131 3.9014C6.43612 3.9014 6.15631 4.18312 6.15631 4.53066V6.13527H5.59381C5.24862 6.13527 4.96881 6.41699 4.96881 6.76453V8.38487C4.96881 9.85513 6.00156 11.0869 7.375 11.384L7.37459 14.112C7.37456 14.372 7.23031 14.529 7.14434 14.5994C6.99725 14.7199 6.80619 14.7667 6.62016 14.7278C3.51191 14.0784 1.25487 11.2866 1.24934 8.08597C1.24934 8.08597 1.25003 8.09387 1.25003 8.08597C1.25003 4.33864 4.27806 1.25852 8.00003 1.25852C11.722 1.25852 14.75 4.30718 14.75 8.05451C14.75 10.8018 13.1333 13.2666 10.6312 14.334C10.3134 14.4696 10.1649 14.8389 10.2996 15.1589C10.4342 15.4789 10.8011 15.6285 11.1189 15.4928C12.547 14.8836 13.763 13.8711 14.6354 12.5648C15.5281 11.2281 16 9.66846 16 8.05451C16 5.90307 15.1679 3.88039 13.6569 2.35909ZM6.21875 8.38487V7.39379H9.8125V8.38487C9.8125 9.38243 9.00644 10.194 8.01562 10.194C7.02481 10.194 6.21875 9.3824 6.21875 8.38487Z" fill="#313A4E"/>
</svg>
