<svg width="14" height="16" viewBox="0 0 14 16" fill="none" xmlns="http://www.w3.org/2000/svg">
<path d="M11.9237 8.11151C11.8647 8.05313 11.7942 8.0067 11.7164 7.97494C11.6386 7.94317 11.555 7.92669 11.4706 7.92647C11.3861 7.92625 11.3025 7.94228 11.2245 7.97364C11.1465 8.005 11.0758 8.05105 11.0164 8.10912C10.957 8.16718 10.9102 8.2361 10.8786 8.31184C10.847 8.38759 10.8314 8.46866 10.8325 8.55032C10.8337 8.63198 10.8517 8.7126 10.8854 8.78747C10.9191 8.86235 10.9678 8.93 11.0289 8.98646C11.5688 9.50021 11.9971 10.1131 12.2887 10.7891C12.5804 11.4651 12.7295 12.1906 12.7272 12.9231C12.7272 13.6758 10.4962 14.7692 7 14.7692C3.50377 14.7692 1.27275 13.6752 1.27275 12.9218C1.27061 12.1944 1.4177 11.4738 1.7055 10.8017C1.9933 10.1296 2.41611 9.51935 2.94944 9.00634C3.00976 8.94946 3.0578 8.88157 3.09078 8.80661C3.12376 8.73164 3.14101 8.65108 3.14155 8.56961C3.14208 8.48815 3.12588 8.40739 3.09389 8.33202C3.06189 8.25665 3.01475 8.18818 2.95517 8.13057C2.8956 8.07297 2.8248 8.02737 2.74686 7.99643C2.66892 7.96549 2.58541 7.94983 2.50117 7.95034C2.41692 7.95086 2.33362 7.96755 2.2561 7.99944C2.17857 8.03133 2.10837 8.07779 2.04956 8.13612C1.39756 8.76332 0.880691 9.50935 0.528886 10.331C0.177081 11.1527 -0.00267327 12.0337 3.00436e-05 12.9231C3.00436e-05 14.9216 3.60629 16 7 16C10.3937 16 14 14.9216 14 12.9231C14.0028 12.0278 13.8206 11.1409 13.464 10.3146C13.1075 9.48836 12.5838 8.73932 11.9237 8.11151V8.11151Z" fill="#313A4E"/>
<path d="M7.00009 8.61539C7.88111 8.61539 8.74235 8.36275 9.47489 7.88941C10.2074 7.41607 10.7784 6.7433 11.1155 5.95618C11.4527 5.16905 11.5409 4.30292 11.369 3.46731C11.1971 2.63169 10.7729 1.86414 10.1499 1.2617C9.52694 0.659254 8.73322 0.248986 7.86912 0.082773C7.00503 -0.0834402 6.10937 0.00186645 5.29542 0.327905C4.48146 0.653945 3.78576 1.20607 3.29629 1.91447C2.80682 2.62286 2.54556 3.45571 2.54556 4.30769C2.54693 5.44976 3.01668 6.54467 3.85177 7.35224C4.68686 8.1598 5.81909 8.61407 7.00009 8.61539ZM7.00009 1.23077C7.62939 1.23077 8.24456 1.41123 8.7678 1.74933C9.29105 2.08742 9.69887 2.56797 9.93969 3.13021C10.1805 3.69244 10.2435 4.31111 10.1208 4.90797C9.99799 5.50484 9.69495 6.05309 9.24996 6.48341C8.80498 6.91372 8.23804 7.20677 7.62083 7.3255C7.00362 7.44422 6.36386 7.38329 5.78247 7.1504C5.20107 6.91752 4.70414 6.52314 4.35452 6.01714C4.00489 5.51114 3.81828 4.91625 3.81828 4.30769C3.81928 3.49194 4.15482 2.70987 4.75131 2.13304C5.3478 1.55622 6.15653 1.23173 7.00009 1.23077V1.23077Z" fill="#313A4E"/>
</svg>
